<?xml version="1.0" encoding="utf-8"?>
<!-- Generated by IcoMoon.io -->
<!DOCTYPE svg PUBLIC "-//W3C//DTD SVG 1.1//EN" "http://www.w3.org/Graphics/SVG/1.1/DTD/svg11.dtd">
<svg version="1.1" xmlns="http://www.w3.org/2000/svg" xmlns:xlink="http://www.w3.org/1999/xlink" width="1024" height="1024" viewBox="0 0 1024 1024">
<g id="icomoon-ignore">
</g>
<path d="M1024 268.288c0 228.352 0 455.68 0 684.032-2.048 7.168-4.096 14.336-7.168 20.48-16.384 35.84-55.296 55.296-95.232 46.080-36.864-8.192-64.512-43.008-64.512-81.92 0-78.848 0-156.672 0-235.52 0-4.096 0-8.192 0-13.312-88.064 0-174.080 0-261.12 0 0 4.096 0 8.192 0 11.264 0 79.872 0 158.72 0 238.592 0 52.224-47.104 91.136-99.328 81.92-39.936-7.168-68.608-41.984-68.608-83.968 0-210.944 0-420.864 0-631.808 0-9.216-1.024-18.432-2.048-27.648-11.264-64.512-73.728-112.64-138.24-106.496-67.584 6.144-119.808 62.464-119.808 129.024 0 69.632 0 140.288 0 209.92 0 3.072 0 7.168 0 11.264 35.84 0 70.656 0 105.472 0 28.672 0 54.272 7.168 72.704 30.72 21.504 26.624 26.624 57.344 11.264 88.064-14.336 30.72-38.912 48.128-74.752 48.128-34.816 0-68.608 0-103.424 0-4.096 0-7.168 0-11.264 0 0 5.12 0 9.216 0 12.288 0 78.848 0 158.72 0 237.568 0 36.864-19.456 62.464-52.224 76.8-31.744 14.336-61.44 8.192-88.064-15.36-14.336-12.288-22.528-27.648-27.648-46.080 0-228.352 0-455.68 0-684.032 1.024-1.024 2.048-3.072 2.048-4.096 14.336-116.736 78.848-197.632 185.344-240.64 80.896-32.768 164.864-28.672 244.736 10.24 30.72 14.336 56.32 34.816 79.872 58.368 29.696-30.72 63.488-55.296 103.424-69.632 77.824-27.648 155.648-28.672 231.424 5.12 89.088 40.96 146.432 108.544 169.984 204.8 3.072 11.264 5.12 23.552 7.168 35.84zM595.968 520.192c88.064 0 174.080 0 261.12 0 0-5.12 0-9.216 0-13.312 0-67.584 0-135.168 0-202.752 0-39.936-15.36-73.728-45.056-100.352-40.96-35.84-88.064-44.032-137.216-22.528s-77.824 61.44-78.848 116.736c-1.024 71.68 0 143.36 0 215.040 0 2.048 0 4.096 0 7.168z"></path>
</svg>
